<svg xmlns="http://www.w3.org/2000/svg" viewBox="0 0 240 64" fill="none">
  <defs>
    <linearGradient id="gBlue" x1="0" y1="0" x2="1" y2="1">
      <stop offset="0%" stop-color="#3B82F6"/>
      <stop offset="100%" stop-color="#1D4ED8"/>
    </linearGradient>
    <linearGradient id="gDark" x1="0" y1="0" x2="0" y2="1">
      <stop offset="0%" stop-color="#0B1B3A"/>
      <stop offset="100%" stop-color="#1E293B"/>
    </linearGradient>
  </defs>
  <g transform="translate(4,6)">
    <circle cx="20" cy="10" r="5" fill="url(#gBlue)"/>
    <path d="M14 18 Q14 14 20 14 Q26 14 26 18 L26 26 L14 26 Z" fill="url(#gDark)"/>
    <circle cx="8"  cy="14" r="4" fill="url(#gDark)"/>
    <path d="M3 21 Q3 18 8 18 Q13 18 13 21 L13 27 L3 27 Z" fill="url(#gDark)"/>
    <circle cx="32" cy="14" r="4" fill="url(#gDark)"/>
    <path d="M27 21 Q27 18 32 18 Q37 18 37 21 L37 27 L27 27 Z" fill="url(#gDark)"/>
    <path d="M2 28 Q20 22 38 28" stroke="url(#gBlue)" stroke-width="2" fill="none" stroke-linecap="round"/>
    <g transform="translate(13,30)">
      <path d="M7 0 L9.5 1 L11 0 L13 2 L12 4 L13 6 L11 8 L9.5 7 L7 8 L5 6 L6 4 L5 2 Z" fill="url(#gBlue)"/>
      <circle cx="9" cy="4" r="1.8" fill="#0B1B3A"/>
    </g>
  </g>
  <text x="54" y="34" font-family="Inter, system-ui, sans-serif" font-size="22" font-weight="800" letter-spacing="2" fill="#0B1B3A">GESTE<tspan fill="#3B82F6">K</tspan></text>
  <text x="54" y="50" font-family="Inter, system-ui, sans-serif" font-size="7" font-weight="600" letter-spacing="2.5" fill="#3B82F6">MANAGE . AUTOMATE . SCALE</text>
</svg>
